<svg width="167" height="42" viewBox="0 0 167 42" fill="none" xmlns="http://www.w3.org/2000/svg">
<path d="M53.48 9.6V26.56L56.04 27.52V28H49.96V27.52L52.52 26.56V6.56L50.6 6.08V5.6H54.6C55.7093 5.6 56.584 5.83467 57.224 6.304C57.8853 6.752 58.4507 7.424 58.92 8.32L65.896 21.664L71.24 8.32C71.6027 7.38133 72.0933 6.69867 72.712 6.272C73.3307 5.824 74.28 5.6 75.56 5.6H78.92V6.08L77 6.56V27.04L78.92 27.52V28H69.8V27.52L71.72 27.04V9.6L64.2 28.32H63.24L53.48 9.6ZM88.0513 28.48C86.1526 28.48 84.6913 28.0747 83.6673 27.264C82.6433 26.4533 82.1313 25.4187 82.1313 24.16C82.1313 23.328 82.3126 22.5067 82.6753 21.696C82.8246 21.312 83.0166 20.96 83.2513 20.64C84.1259 20.4267 85.0753 20.2347 86.0993 20.064C88.4033 19.68 90.4406 19.4453 92.2113 19.36V18.4C92.2113 16.032 91.9233 14.4 91.3473 13.504C90.7713 12.608 89.8859 12.16 88.6913 12.16C88.2433 12.16 87.8593 12.2133 87.5393 12.32L87.0913 12.48V17.28L86.6753 17.376C86.3339 17.4187 86.0459 17.44 85.8113 17.44C85.0859 17.44 84.4993 17.2267 84.0513 16.8C83.6246 16.352 83.4113 15.7653 83.4113 15.04C83.4113 14.0587 83.9019 13.2267 84.8833 12.544C85.8859 11.8613 87.3686 11.52 89.3313 11.52C90.9953 11.52 92.4246 11.8187 93.6193 12.416C94.8353 12.992 95.7526 13.8027 96.3713 14.848C97.0113 15.872 97.3313 17.056 97.3313 18.4V27.04L99.2513 27.52V28H96.3713C95.0913 28 94.0993 27.6053 93.3953 26.816C93.0966 26.496 92.8619 26.0907 92.6913 25.6C92.3926 26.1333 92.0406 26.6133 91.6353 27.04C90.6753 28 89.4806 28.48 88.0513 28.48ZM89.3313 27.36C90.1206 27.36 90.8353 26.9333 91.4753 26.08C91.7099 25.76 91.9553 25.3333 92.2113 24.8V20.16C91.2299 20.16 90.2913 20.2133 89.3953 20.32C88.7339 20.4053 88.2859 20.4587 88.0513 20.48C87.9446 20.7147 87.8379 21.0347 87.7313 21.44C87.5179 22.2507 87.4113 23.0507 87.4113 23.84C87.4113 25.0347 87.5926 25.92 87.9553 26.496C88.3179 27.072 88.7766 27.36 89.3313 27.36ZM101.186 27.52L103.106 27.04V12.96L101.186 12.48V12H104.066C105.325 12 106.317 12.4053 107.042 13.216C107.32 13.536 107.554 13.9307 107.746 14.4C108.066 13.9307 108.461 13.504 108.93 13.12C109.997 12.2667 111.192 11.84 112.514 11.84C113.645 11.84 114.488 12.1067 115.042 12.64C115.618 13.152 115.906 13.8987 115.906 14.88C115.906 15.6053 115.682 16.192 115.234 16.64C114.808 17.0667 114.232 17.28 113.506 17.28C113.208 17.28 112.909 17.2587 112.61 17.216L112.226 17.12V12.64C111.138 12.64 110.146 13.0667 109.25 13.92C108.824 14.3467 108.482 14.7733 108.226 15.2V27.04L110.146 27.52V28H101.186V27.52ZM117.343 27.52L119.263 27.04V6.56L117.343 6.08V5.6H121.503C123.423 5.6 124.383 6.56 124.383 8.48V19.68L130.303 13.44L127.903 12.48V12H133.983V12.48L131.423 13.44L127.743 17.28L133.983 27.04L135.583 27.52V28H131.423C130.399 28 129.567 27.776 128.927 27.328C128.287 26.88 127.679 26.1973 127.103 25.28L124.383 20.96V27.04L126.303 27.52V28H117.343V27.52ZM144.545 28.48C141.814 28.48 139.692 27.7333 138.177 26.24C136.662 24.7253 135.905 22.6453 135.905 20C135.905 18.272 136.236 16.768 136.897 15.488C137.558 14.208 138.476 13.2267 139.649 12.544C140.844 11.8613 142.209 11.52 143.745 11.52C145.281 11.52 146.625 11.808 147.777 12.384C148.95 12.96 149.846 13.7387 150.465 14.72C151.105 15.68 151.425 16.7467 151.425 17.92C151.425 18.4533 151.372 18.912 151.265 19.296L151.105 19.84C150.188 20.032 149.196 20.192 148.129 20.32C145.889 20.64 143.628 20.8 141.345 20.8C141.345 23.2747 141.686 25.0453 142.369 26.112C143.052 27.1573 143.99 27.68 145.185 27.68C146.017 27.68 146.785 27.488 147.489 27.104C148.214 26.6987 148.78 26.176 149.185 25.536C149.612 24.8747 149.825 24.2027 149.825 23.52H150.625C150.625 24.3733 150.369 25.184 149.857 25.952C149.345 26.72 148.63 27.3387 147.713 27.808C146.796 28.256 145.74 28.48 144.545 28.48ZM141.345 20C142.71 20 143.82 19.9467 144.673 19.84C145.036 19.8187 145.42 19.7653 145.825 19.68C145.846 19.5733 145.9 19.3387 145.985 18.976C146.092 18.4427 146.145 17.8773 146.145 17.28C146.145 15.5093 145.91 14.2187 145.441 13.408C144.972 12.576 144.406 12.16 143.745 12.16C142.145 12.16 141.345 14.7733 141.345 20ZM162.131 28.48C160.723 28.48 159.497 28.224 158.451 27.712C157.427 27.2 156.638 26.496 156.083 25.6C155.529 24.704 155.251 23.6907 155.251 22.56V12.8H153.011V12H155.251V10.4C155.251 8.48 156.211 7.52 158.131 7.52H160.371V12H164.851V12.8H160.371V22.56C160.371 24.5227 160.574 25.8667 160.979 26.592C161.385 27.3173 161.982 27.68 162.771 27.68C163.539 27.68 164.211 27.3067 164.787 26.56C165.363 25.8133 165.651 24.8 165.651 23.52H166.451C166.451 25.0987 166.057 26.3253 165.267 27.2C164.478 28.0533 163.433 28.48 162.131 28.48Z" fill="black"/>
<g filter="url(#filter0_d_1_21)">
<rect x="4" y="16.45" width="33" height="1.1" fill="black"/>
<rect x="34.5135" y="25.7263" width="33" height="1.1" transform="rotate(-150 34.5135 25.7263)" fill="black"/>
<rect x="28.2737" y="31.5645" width="33" height="1.1" transform="rotate(-120 28.2737 31.5645)" fill="black"/>
<rect x="19.9501" y="33.5" width="33" height="1.1" transform="rotate(-90 19.9501 33.5)" fill="black"/>
<rect x="11.7737" y="31.0144" width="33" height="1.1" transform="rotate(-60 11.7737 31.0144)" fill="black"/>
<rect x="5.93536" y="24.7737" width="33" height="1.1" transform="rotate(-30 5.93536 24.7737)" fill="black"/>
</g>
<defs>
<filter id="filter0_d_1_21" x="0" y="0.5" width="41" height="41" filterUnits="userSpaceOnUse" color-interpolation-filters="sRGB">
<feFlood flood-opacity="0" result="BackgroundImageFix"/>
<feColorMatrix in="SourceAlpha" type="matrix" values="0 0 0 0 0 0 0 0 0 0 0 0 0 0 0 0 0 0 127 0" result="hardAlpha"/>
<feOffset dy="4"/>
<feGaussianBlur stdDeviation="2"/>
<feComposite in2="hardAlpha" operator="out"/>
<feColorMatrix type="matrix" values="0 0 0 0 0 0 0 0 0 0 0 0 0 0 0 0 0 0 0.25 0"/>
<feBlend mode="normal" in2="BackgroundImageFix" result="effect1_dropShadow_1_21"/>
<feBlend mode="normal" in="SourceGraphic" in2="effect1_dropShadow_1_21" result="shape"/>
</filter>
</defs>
</svg>
