<svg width="40" height="40" viewBox="0 0 40 40" fill="none" xmlns="http://www.w3.org/2000/svg">
<rect width="40" height="40" fill="white" fill-opacity="0.2"/>
<path d="M19.875 16.707C22.0898 16.707 23.918 18.5352 23.918 20.75C23.918 23 22.0898 24.793 19.875 24.793C17.625 24.793 15.832 23 15.832 20.75C15.832 18.5352 17.625 16.707 19.875 16.707ZM19.875 23.3867C21.3164 23.3867 22.4766 22.2266 22.4766 20.75C22.4766 19.3086 21.3164 18.1484 19.875 18.1484C18.3984 18.1484 17.2383 19.3086 17.2383 20.75C17.2383 22.2266 18.4336 23.3867 19.875 23.3867ZM25.0078 16.5664C25.0078 17.0938 24.5859 17.5156 24.0586 17.5156C23.5312 17.5156 23.1094 17.0938 23.1094 16.5664C23.1094 16.0391 23.5312 15.6172 24.0586 15.6172C24.5859 15.6172 25.0078 16.0391 25.0078 16.5664ZM27.6797 17.5156C27.75 18.8164 27.75 22.7188 27.6797 24.0195C27.6094 25.2852 27.3281 26.375 26.4141 27.3242C25.5 28.2383 24.375 28.5195 23.1094 28.5898C21.8086 28.6602 17.9062 28.6602 16.6055 28.5898C15.3398 28.5195 14.25 28.2383 13.3008 27.3242C12.3867 26.375 12.1055 25.2852 12.0352 24.0195C11.9648 22.7188 11.9648 18.8164 12.0352 17.5156C12.1055 16.25 12.3867 15.125 13.3008 14.2109C14.25 13.2969 15.3398 13.0156 16.6055 12.9453C17.9062 12.875 21.8086 12.875 23.1094 12.9453C24.375 13.0156 25.5 13.2969 26.4141 14.2109C27.3281 15.125 27.6094 16.25 27.6797 17.5156ZM25.9922 25.3906C26.4141 24.3711 26.3086 21.9102 26.3086 20.75C26.3086 19.625 26.4141 17.1641 25.9922 16.1094C25.7109 15.4414 25.1836 14.8789 24.5156 14.6328C23.4609 14.2109 21 14.3164 19.875 14.3164C18.7148 14.3164 16.2539 14.2109 15.2344 14.6328C14.5312 14.9141 14.0039 15.4414 13.7227 16.1094C13.3008 17.1641 13.4062 19.625 13.4062 20.75C13.4062 21.9102 13.3008 24.3711 13.7227 25.3906C14.0039 26.0938 14.5312 26.6211 15.2344 26.9023C16.2539 27.3242 18.7148 27.2188 19.875 27.2188C21 27.2188 23.4609 27.3242 24.5156 26.9023C25.1836 26.6211 25.7461 26.0938 25.9922 25.3906Z" fill="white"/>
</svg>
