<svg width="44" height="50" viewBox="0 0 44 50" fill="none" xmlns="http://www.w3.org/2000/svg">
<path d="M30.7891 0C30.2498 0 29.8125 0.437305 29.8125 0.976562V5.46875C29.8125 6.00801 30.2498 6.44531 30.7891 6.44531C31.3283 6.44531 31.7656 6.00801 31.7656 5.46875V0.976562C31.7656 0.437305 31.3283 0 30.7891 0ZM8.32812 30.4688C7.78906 30.4688 7.35156 30.9062 7.35156 31.4453C7.35156 31.9844 7.78906 32.4219 8.32812 32.4219C8.86719 32.4219 9.30469 31.9844 9.30469 31.4453C9.30469 30.9062 8.86719 30.4688 8.32812 30.4688Z" fill="black"/>
<path d="M44 22.9064C44 20.1901 42.2836 17.9803 40.1739 17.9803H33.0333C34.1387 14.3346 34.5862 10.0435 34.4999 6.22364C34.4835 5.4947 34.4618 5.07315 34.4324 4.80776C34.3829 2.1468 32.6859 0 30.6087 0C28.499 0 26.7826 2.20985 26.7826 4.92611V6.15764C26.7826 13.9466 19.0143 18.3228 13.1518 20.1994C12.7085 18.8947 11.6967 17.9803 10.5217 17.9803H0.956522C0.42833 17.9803 0 18.5318 0 19.2118V48.7685C0 49.4485 0.42833 50 0.956522 50H10.5217C11.6889 50 12.6949 49.0977 13.1427 47.8068C13.5936 47.9561 14.0443 48.1066 14.4947 48.2585C17.8344 49.3815 19.6741 50 24.1483 50H34.4348C36.5445 50 38.2609 47.7901 38.2609 45.0739C38.2617 44.0983 38.0362 43.1447 37.6133 42.3352C39.0909 41.6698 40.1739 39.8521 40.1739 37.6847C40.1739 36.6756 39.9409 35.7304 39.5334 34.9431C41.0046 34.2766 42.087 32.4631 42.087 30.2956C42.0878 29.32 41.8623 28.3664 41.4394 27.5569C42.917 26.8915 44 25.0738 44 22.9064ZM11.4783 46.3054C11.4783 46.9845 11.0492 47.5369 10.5217 47.5369H1.91304V20.4433H10.5217C11.0492 20.4433 11.4783 20.9958 11.4783 21.6749V46.3054ZM40.1739 25.3695H35.3913C34.8631 25.3695 34.4348 25.9209 34.4348 26.601C34.4348 27.281 34.8631 27.8325 35.3913 27.8325H38.2609C39.3157 27.8325 40.1739 28.9374 40.1739 30.2956C40.1739 31.6559 39.3174 32.7586 38.2609 32.7586H33.4783C32.9501 32.7586 32.5217 33.3101 32.5217 33.9901C32.5217 34.6702 32.9501 35.2217 33.4783 35.2217H36.3478C37.3901 35.2217 38.2609 36.2937 38.2609 37.6847C38.2609 39.0451 37.4044 40.1478 36.3478 40.1478H31.5652C31.037 40.1478 30.6087 40.6993 30.6087 41.3793C30.6087 42.0594 31.037 42.6108 31.5652 42.6108H34.4348C35.4896 42.6108 36.3478 43.7158 36.3478 45.0739C36.3478 46.432 35.4896 47.5369 34.4348 47.5369H24.1483C19.9199 47.5369 18.2683 46.9817 14.9782 45.8754C14.4496 45.697 13.9207 45.5207 13.3913 45.3464V22.6632C20.3135 20.5403 28.6957 15.3585 28.6957 6.15764V4.92611C28.6957 3.56798 29.5538 2.46305 30.6087 2.46305C31.6616 2.46305 32.5197 3.56626 32.5217 4.92229V4.92611C32.5217 5.46133 33.0406 12.0299 30.9601 17.9803H27.7391C27.2109 17.9803 26.7826 18.5318 26.7826 19.2118C26.7826 19.8919 27.2109 20.4433 27.7391 20.4433H40.1739C41.2288 20.4433 42.087 21.5483 42.087 22.9064C42.087 24.2667 41.2305 25.3695 40.1739 25.3695Z" fill="black"/>
<path d="M8.32812 34.3752C7.78887 34.3752 7.35156 34.8125 7.35156 35.3518V43.1643C7.35156 43.7036 7.78887 44.1409 8.32812 44.1409C8.86738 44.1409 9.30469 43.7036 9.30469 43.1643V35.3518C9.30469 34.8125 8.86738 34.3752 8.32812 34.3752ZM22.9766 12.3048H19.0703C18.5311 12.3048 18.0938 12.7421 18.0938 13.2813C18.0938 13.8206 18.5311 14.2579 19.0703 14.2579H22.9766C23.5158 14.2579 23.9531 13.8206 23.9531 13.2813C23.9531 12.7421 23.5158 12.3048 22.9766 12.3048ZM42.5078 12.3048H38.6016C38.0623 12.3048 37.625 12.7421 37.625 13.2813C37.625 13.8206 38.0623 14.2579 38.6016 14.2579H42.5078C43.0471 14.2579 43.4844 13.8206 43.4844 13.2813C43.4844 12.7421 43.0471 12.3048 42.5078 12.3048ZM39.7657 4.30462C39.3843 3.92336 38.7661 3.92336 38.3846 4.30462L35.6229 7.06625C35.2416 7.4476 35.2416 8.06597 35.6229 8.44742C36.0045 8.82877 36.6226 8.82867 37.0041 8.44742L39.7657 5.68578C40.1471 5.30443 40.1471 4.68606 39.7657 4.30462ZM25.9552 7.06625L23.1936 4.30462C22.8121 3.92336 22.1939 3.92336 21.8124 4.30462C21.4311 4.68597 21.4311 5.30433 21.8124 5.68578L24.574 8.44742C24.9557 8.82877 25.5737 8.82867 25.9552 8.44742C26.3365 8.06607 26.3365 7.4477 25.9552 7.06625Z" fill="black"/>
</svg>
