<svg width="40" height="40" viewBox="0 0 40 40" fill="none" xmlns="http://www.w3.org/2000/svg">
<rect width="40" height="40" fill="white" fill-opacity="0.2"/>
<path d="M27.1367 17.0938C27.1367 17.2695 27.1367 17.4102 27.1367 17.5859C27.1367 22.4727 23.4453 28.0625 16.6602 28.0625C14.5508 28.0625 12.6172 27.4648 11 26.4102C11.2812 26.4453 11.5625 26.4805 11.8789 26.4805C13.6016 26.4805 15.1836 25.8828 16.4492 24.8984C14.832 24.8633 13.4609 23.8086 13.0039 22.332C13.25 22.3672 13.4609 22.4023 13.707 22.4023C14.0234 22.4023 14.375 22.332 14.6562 22.2617C12.9688 21.9102 11.7031 20.4336 11.7031 18.6406V18.6055C12.1953 18.8867 12.793 19.0273 13.3906 19.0625C12.3711 18.3945 11.7383 17.2695 11.7383 16.0039C11.7383 15.3008 11.9141 14.668 12.2305 14.1406C14.0586 16.3555 16.8008 17.832 19.8594 18.0078C19.7891 17.7266 19.7539 17.4453 19.7539 17.1641C19.7539 15.125 21.4062 13.4727 23.4453 13.4727C24.5 13.4727 25.4492 13.8945 26.1523 14.6328C26.9609 14.457 27.7695 14.1406 28.4727 13.7188C28.1914 14.5977 27.6289 15.3008 26.8555 15.7578C27.5938 15.6875 28.332 15.4766 28.9648 15.1953C28.4727 15.9336 27.8398 16.5664 27.1367 17.0938Z" fill="white"/>
</svg>
