<svg width="163" height="33" viewBox="0 0 163 33" fill="none" xmlns="http://www.w3.org/2000/svg">
<path d="M49.48 9.1V26.06L52.04 27.02V27.5H45.96V27.02L48.52 26.06V6.06L46.6 5.58V5.1H50.6C51.7093 5.1 52.584 5.33467 53.224 5.804C53.8853 6.252 54.4507 6.924 54.92 7.82L61.896 21.164L67.24 7.82C67.6027 6.88133 68.0933 6.19867 68.712 5.772C69.3307 5.324 70.28 5.1 71.56 5.1H74.92V5.58L73 6.06V26.54L74.92 27.02V27.5H65.8V27.02L67.72 26.54V9.1L60.2 27.82H59.24L49.48 9.1ZM84.0513 27.98C82.1526 27.98 80.6913 27.5747 79.6673 26.764C78.6433 25.9533 78.1313 24.9187 78.1313 23.66C78.1313 22.828 78.3126 22.0067 78.6753 21.196C78.8246 20.812 79.0166 20.46 79.2513 20.14C80.1259 19.9267 81.0753 19.7347 82.0993 19.564C84.4033 19.18 86.4406 18.9453 88.2113 18.86V17.9C88.2113 15.532 87.9233 13.9 87.3473 13.004C86.7713 12.108 85.8859 11.66 84.6913 11.66C84.2433 11.66 83.8593 11.7133 83.5393 11.82L83.0913 11.98V16.78L82.6753 16.876C82.3339 16.9187 82.0459 16.94 81.8113 16.94C81.0859 16.94 80.4993 16.7267 80.0513 16.3C79.6246 15.852 79.4113 15.2653 79.4113 14.54C79.4113 13.5587 79.9019 12.7267 80.8833 12.044C81.8859 11.3613 83.3686 11.02 85.3313 11.02C86.9953 11.02 88.4246 11.3187 89.6193 11.916C90.8353 12.492 91.7526 13.3027 92.3713 14.348C93.0113 15.372 93.3313 16.556 93.3313 17.9V26.54L95.2513 27.02V27.5H92.3713C91.0913 27.5 90.0993 27.1053 89.3953 26.316C89.0966 25.996 88.8619 25.5907 88.6913 25.1C88.3926 25.6333 88.0406 26.1133 87.6353 26.54C86.6753 27.5 85.4806 27.98 84.0513 27.98ZM85.3313 26.86C86.1206 26.86 86.8353 26.4333 87.4753 25.58C87.7099 25.26 87.9553 24.8333 88.2113 24.3V19.66C87.2299 19.66 86.2913 19.7133 85.3953 19.82C84.7339 19.9053 84.2859 19.9587 84.0513 19.98C83.9446 20.2147 83.8379 20.5347 83.7313 20.94C83.5179 21.7507 83.4113 22.5507 83.4113 23.34C83.4113 24.5347 83.5926 25.42 83.9553 25.996C84.3179 26.572 84.7766 26.86 85.3313 26.86ZM97.1863 27.02L99.1063 26.54V12.46L97.1863 11.98V11.5H100.066C101.325 11.5 102.317 11.9053 103.042 12.716C103.32 13.036 103.554 13.4307 103.746 13.9C104.066 13.4307 104.461 13.004 104.93 12.62C105.997 11.7667 107.192 11.34 108.514 11.34C109.645 11.34 110.488 11.6067 111.042 12.14C111.618 12.652 111.906 13.3987 111.906 14.38C111.906 15.1053 111.682 15.692 111.234 16.14C110.808 16.5667 110.232 16.78 109.506 16.78C109.208 16.78 108.909 16.7587 108.61 16.716L108.226 16.62V12.14C107.138 12.14 106.146 12.5667 105.25 13.42C104.824 13.8467 104.482 14.2733 104.226 14.7V26.54L106.146 27.02V27.5H97.1863V27.02ZM113.343 27.02L115.263 26.54V6.06L113.343 5.58V5.1H117.503C119.423 5.1 120.383 6.06 120.383 7.98V19.18L126.303 12.94L123.903 11.98V11.5H129.983V11.98L127.423 12.94L123.743 16.78L129.983 26.54L131.583 27.02V27.5H127.423C126.399 27.5 125.567 27.276 124.927 26.828C124.287 26.38 123.679 25.6973 123.103 24.78L120.383 20.46V26.54L122.303 27.02V27.5H113.343V27.02ZM140.545 27.98C137.814 27.98 135.692 27.2333 134.177 25.74C132.662 24.2253 131.905 22.1453 131.905 19.5C131.905 17.772 132.236 16.268 132.897 14.988C133.558 13.708 134.476 12.7267 135.649 12.044C136.844 11.3613 138.209 11.02 139.745 11.02C141.281 11.02 142.625 11.308 143.777 11.884C144.95 12.46 145.846 13.2387 146.465 14.22C147.105 15.18 147.425 16.2467 147.425 17.42C147.425 17.9533 147.372 18.412 147.265 18.796L147.105 19.34C146.188 19.532 145.196 19.692 144.129 19.82C141.889 20.14 139.628 20.3 137.345 20.3C137.345 22.7747 137.686 24.5453 138.369 25.612C139.052 26.6573 139.99 27.18 141.185 27.18C142.017 27.18 142.785 26.988 143.489 26.604C144.214 26.1987 144.78 25.676 145.185 25.036C145.612 24.3747 145.825 23.7027 145.825 23.02H146.625C146.625 23.8733 146.369 24.684 145.857 25.452C145.345 26.22 144.63 26.8387 143.713 27.308C142.796 27.756 141.74 27.98 140.545 27.98ZM137.345 19.5C138.71 19.5 139.82 19.4467 140.673 19.34C141.036 19.3187 141.42 19.2653 141.825 19.18C141.846 19.0733 141.9 18.8387 141.985 18.476C142.092 17.9427 142.145 17.3773 142.145 16.78C142.145 15.0093 141.91 13.7187 141.441 12.908C140.972 12.076 140.406 11.66 139.745 11.66C138.145 11.66 137.345 14.2733 137.345 19.5ZM158.131 27.98C156.723 27.98 155.497 27.724 154.451 27.212C153.427 26.7 152.638 25.996 152.083 25.1C151.529 24.204 151.251 23.1907 151.251 22.06V12.3H149.011V11.5H151.251V9.9C151.251 7.98 152.211 7.02 154.131 7.02H156.371V11.5H160.851V12.3H156.371V22.06C156.371 24.0227 156.574 25.3667 156.979 26.092C157.385 26.8173 157.982 27.18 158.771 27.18C159.539 27.18 160.211 26.8067 160.787 26.06C161.363 25.3133 161.651 24.3 161.651 23.02H162.451C162.451 24.5987 162.057 25.8253 161.267 26.7C160.478 27.5533 159.433 27.98 158.131 27.98Z" fill="white"/>
<rect y="15.95" width="33" height="1.1" fill="white"/>
<rect x="30.5134" y="25.2261" width="33" height="1.1" transform="rotate(-150 30.5134 25.2261)" fill="white"/>
<rect x="24.2737" y="31.0645" width="33" height="1.1" transform="rotate(-120 24.2737 31.0645)" fill="white"/>
<rect x="15.9501" y="33" width="33" height="1.1" transform="rotate(-90 15.9501 33)" fill="white"/>
<rect x="7.77368" y="30.5144" width="33" height="1.1" transform="rotate(-60 7.77368 30.5144)" fill="white"/>
<rect x="1.9353" y="24.2739" width="33" height="1.1" transform="rotate(-30 1.9353 24.2739)" fill="white"/>
</svg>
