<svg width="40" height="40" viewBox="0 0 40 40" fill="none" xmlns="http://www.w3.org/2000/svg">
<rect width="40" height="40" fill="white" fill-opacity="0.2"/>
<path d="M28.8008 16.1445C29.2227 17.6211 29.2227 20.7852 29.2227 20.7852C29.2227 20.7852 29.2227 23.9141 28.8008 25.4258C28.5898 26.2695 27.9219 26.9023 27.1133 27.1133C25.6016 27.5 19.625 27.5 19.625 27.5C19.625 27.5 13.6133 27.5 12.1016 27.1133C11.293 26.9023 10.625 26.2695 10.4141 25.4258C9.99219 23.9141 9.99219 20.7852 9.99219 20.7852C9.99219 20.7852 9.99219 17.6211 10.4141 16.1445C10.625 15.3008 11.293 14.6328 12.1016 14.4219C13.6133 14 19.625 14 19.625 14C19.625 14 25.6016 14 27.1133 14.4219C27.9219 14.6328 28.5898 15.3008 28.8008 16.1445ZM17.6562 23.6328L22.6484 20.7852L17.6562 17.9375V23.6328Z" fill="white"/>
</svg>
